# WaveFront *.obj file (generated by Autodesk ATF)

mtllib d39c3ffd-a044-49cb-94fc-d916c581ce44.mtl

g Body1

v 100.000000 50.000000 -50.000000
v 100.000000 100.000000 -50.000000
v 150.000000 100.000000 -50.000000
v 150.000000 50.000000 -50.000000
v 100.000000 100.000000 0.000000
v 150.000000 100.000000 0.000000
v 150.000000 50.000000 0.000000
v 100.000000 50.000000 0.000000
vt 2.500000 2.500000 0.000000
vt -2.500000 2.500000 0.000000
vt 2.500000 -2.500000 0.000000
vt -2.500000 -2.500000 0.000000
vt 5.000000 2.500000 0.000000
vt 0.000000 2.500000 0.000000
vt 5.000000 -2.500000 0.000000
vt 0.000000 -2.500000 0.000000
vt 5.000000 2.500000 0.000000
vt 0.000000 2.500000 0.000000
vt 5.000000 -2.500000 0.000000
vt 0.000000 -2.500000 0.000000
vt 5.000000 2.500000 0.000000
vt 0.000000 2.500000 0.000000
vt 5.000000 -2.500000 0.000000
vt 0.000000 -2.500000 0.000000
vt 5.000000 2.500000 0.000000
vt 0.000000 2.500000 0.000000
vt 5.000000 -2.500000 0.000000
vt 0.000000 -2.500000 0.000000
vt -2.500000 -2.500000 0.000000
vt 2.500000 -2.500000 0.000000
vt -2.500000 2.500000 0.000000
vt 2.500000 2.500000 0.000000
vn 0.000000 0.000000 -0.100000
vn 0.000000 0.000000 -0.100000
vn 0.000000 0.000000 -0.100000
vn 0.000000 0.000000 -0.100000
vn 0.000000 0.100000 0.000000
vn 0.000000 0.100000 0.000000
vn 0.000000 0.100000 0.000000
vn 0.000000 0.100000 0.000000
vn 0.100000 0.000000 0.000000
vn 0.100000 0.000000 0.000000
vn 0.100000 0.000000 0.000000
vn 0.100000 0.000000 0.000000
vn 0.000000 -0.100000 0.000000
vn 0.000000 -0.100000 0.000000
vn 0.000000 -0.100000 0.000000
vn 0.000000 -0.100000 0.000000
vn -0.100000 0.000000 0.000000
vn -0.100000 0.000000 0.000000
vn -0.100000 0.000000 0.000000
vn -0.100000 0.000000 0.000000
vn 0.000000 0.000000 0.100000
vn 0.000000 0.000000 0.100000
vn 0.000000 0.000000 0.100000
vn 0.000000 0.000000 0.100000
usemtl Steel_-_Satin
f 2/1/1 3/2/2 1/3/3
f 1/3/3 3/2/2 4/4/4
f 5/5/5 6/6/6 2/7/7
f 2/7/7 6/6/6 3/8/8
f 6/9/9 7/10/10 3/11/11
f 3/11/11 7/10/10 4/12/12
f 7/13/13 8/14/14 4/15/15
f 4/15/15 8/14/14 1/16/16
f 8/17/17 5/18/18 1/19/19
f 1/19/19 5/18/18 2/20/20
f 8/21/21 7/22/22 5/23/23
f 5/23/23 7/22/22 6/24/24
g Body2

v 209.817310 -60.649045 -25.000000
v 164.501920 -81.779958 -25.000000
v 143.371007 -36.464569 -25.000000
v 188.686397 -15.333656 -25.000000
v 164.501920 -81.779958 25.000000
v 143.371007 -36.464569 25.000000
v 188.686397 -15.333656 25.000000
v 209.817310 -60.649045 25.000000
vt -2.500000 -2.500000 0.000000
vt 2.500000 -2.500000 0.000000
vt -2.500000 2.500000 0.000000
vt 2.500000 2.500000 0.000000
vt 5.000000 2.500000 0.000000
vt 0.000000 2.500000 0.000000
vt 5.000000 -2.500000 0.000000
vt 0.000000 -2.500000 0.000000
vt 5.000000 2.500000 0.000000
vt 0.000000 2.500000 0.000000
vt 5.000000 -2.500000 0.000000
vt -0.000000 -2.500000 0.000000
vt 5.000000 2.500000 0.000000
vt 0.000000 2.500000 0.000000
vt 5.000000 -2.500000 0.000000
vt 0.000000 -2.500000 0.000000
vt 5.000000 2.500000 0.000000
vt 0.000000 2.500000 0.000000
vt 5.000000 -2.500000 0.000000
vt 0.000000 -2.500000 0.000000
vt -2.500000 -2.500000 0.000000
vt 2.500000 -2.500000 0.000000
vt -2.500000 2.500000 0.000000
vt 2.500000 2.500000 0.000000
vn 0.000000 0.000000 -0.100000
vn 0.000000 0.000000 -0.100000
vn 0.000000 0.000000 -0.100000
vn 0.000000 0.000000 -0.100000
vn -0.090631 -0.042262 0.000000
vn -0.090631 -0.042262 0.000000
vn -0.090631 -0.042262 0.000000
vn -0.090631 -0.042262 0.000000
vn -0.042262 0.090631 0.000000
vn -0.042262 0.090631 0.000000
vn -0.042262 0.090631 0.000000
vn -0.042262 0.090631 0.000000
vn 0.090631 0.042262 0.000000
vn 0.090631 0.042262 0.000000
vn 0.090631 0.042262 0.000000
vn 0.090631 0.042262 0.000000
vn 0.042262 -0.090631 0.000000
vn 0.042262 -0.090631 0.000000
vn 0.042262 -0.090631 0.000000
vn 0.042262 -0.090631 0.000000
vn 0.000000 0.000000 0.100000
vn 0.000000 0.000000 0.100000
vn 0.000000 0.000000 0.100000
vn 0.000000 0.000000 0.100000
f 9/25/25 10/26/26 12/27/27
f 12/27/27 10/26/26 11/28/28
f 13/29/29 14/30/30 10/31/31
f 10/31/31 14/30/30 11/32/32
f 14/33/33 15/34/34 11/35/35
f 11/35/35 15/34/34 12/36/36
f 15/37/37 16/38/38 12/39/39
f 12/39/39 16/38/38 9/40/40
f 16/41/41 13/42/42 9/43/43
f 9/43/43 13/42/42 10/44/44
f 13/45/45 16/46/46 14/47/47
f 14/47/47 16/46/46 15/48/48
g Body3

v 241.492930 65.975160 -0.751166
v 278.124540 80.873290 29.845743
v 310.711559 52.560314 4.617554
v 274.079949 37.662184 -25.979355
v 268.315805 42.449065 60.298455
v 300.902825 14.136088 35.070266
v 264.271214 -0.762041 4.473357
v 231.684195 27.550935 29.701545
vt 2.500000 2.500000 0.000000
vt -2.500000 2.500000 0.000000
vt 2.500000 -2.500000 0.000000
vt -2.500000 -2.500000 0.000000
vt 5.000000 2.500000 0.000000
vt -0.000000 2.500000 0.000000
vt 5.000000 -2.500000 0.000000
vt -0.000000 -2.500000 0.000000
vt 5.000000 2.500000 0.000000
vt 0.000000 2.500000 0.000000
vt 5.000000 -2.500000 0.000000
vt -0.000000 -2.500000 0.000000
vt 5.000000 2.500000 0.000000
vt 0.000000 2.500000 0.000000
vt 5.000000 -2.500000 0.000000
vt -0.000000 -2.500000 0.000000
vt 5.000000 2.500000 0.000000
vt 0.000000 2.500000 0.000000
vt 5.000000 -2.500000 0.000000
vt 0.000000 -2.500000 0.000000
vt -2.500000 -2.500000 0.000000
vt 2.500000 -2.500000 0.000000
vt -2.500000 2.500000 0.000000
vt 2.500000 2.500000 0.000000
vn 0.019617 0.076848 -0.060905
vn 0.019617 0.076848 -0.060905
vn 0.019617 0.076848 -0.060905
vn 0.019617 0.076848 -0.060905
vn 0.073263 0.029796 0.061194
vn 0.073263 0.029796 0.061194
vn 0.073263 0.029796 0.061194
vn 0.073263 0.029796 0.061194
vn 0.065174 -0.056626 -0.050456
vn 0.065174 -0.056626 -0.050456
vn 0.065174 -0.056626 -0.050456
vn 0.065174 -0.056626 -0.050456
vn -0.073263 -0.029796 -0.061194
vn -0.073263 -0.029796 -0.061194
vn -0.073263 -0.029796 -0.061194
vn -0.073263 -0.029796 -0.061194
vn -0.065174 0.056626 0.050456
vn -0.065174 0.056626 0.050456
vn -0.065174 0.056626 0.050456
vn -0.065174 0.056626 0.050456
vn -0.019617 -0.076848 0.060905
vn -0.019617 -0.076848 0.060905
vn -0.019617 -0.076848 0.060905
vn -0.019617 -0.076848 0.060905
f 18/49/49 19/50/50 17/51/51
f 17/51/51 19/50/50 20/52/52
f 21/53/53 22/54/54 18/55/55
f 18/55/55 22/54/54 19/56/56
f 22/57/57 23/58/58 19/59/59
f 19/59/59 23/58/58 20/60/60
f 23/61/61 24/62/62 20/63/63
f 20/63/63 24/62/62 17/64/64
f 24/65/65 21/66/66 17/67/67
f 17/67/67 21/66/66 18/68/68
f 24/69/69 23/70/70 21/71/71
f 21/71/71 23/70/70 22/72/72
# 24 vertices
# 72 texture params
# 72 normals
# 36 facets

# 3 groups
